<svg version="1.1" id="Layer_1" xmlns="http://www.w3.org/2000/svg" xmlns:xlink="http://www.w3.org/1999/xlink" x="0px" y="0px"
	 width="100%" viewBox="0 0 1024 512" enable-background="new 0 0 1024 512" xml:space="preserve">
<path fill="#000000" opacity="1.000000" stroke="none" 
	d="
M340.090118,375.149689 
	C314.125214,394.924316 275.568481,394.318604 252.741287,374.004150 
	C245.578629,367.629974 240.854767,359.692383 237.856018,350.686127 
	C237.007050,348.136353 236.159958,346.289032 232.852432,346.279877 
	C215.303085,346.231323 198.261765,341.864502 180.930283,339.891693 
	C167.385345,338.349884 153.790894,336.802948 140.438156,334.151764 
	C129.726974,332.025085 121.962807,324.764496 115.953835,315.782745 
	C115.331551,314.852570 114.884560,313.460266 115.553757,312.429901 
	C121.445503,303.358154 116.430992,294.026001 115.998253,284.897125 
	C115.623466,276.990540 116.342514,269.944214 122.328575,264.309784 
	C124.349640,262.407440 124.012505,260.118622 124.104568,257.829712 
	C124.719414,242.542496 124.323326,227.174484 127.689117,212.106491 
	C128.195694,209.838623 128.871490,207.604858 129.547729,205.379242 
	C131.721313,198.225677 135.725555,194.052185 143.965424,193.262634 
	C160.002167,191.725967 175.926422,189.031250 191.909470,186.908157 
	C196.508957,186.297195 200.352600,183.893204 204.394745,182.007080 
	C230.204285,169.964111 255.634232,157.123001 282.037598,146.339600 
	C303.701508,137.491882 326.348114,133.465378 349.379578,130.619843 
	C391.039154,125.472855 432.875153,127.068459 474.654480,127.210938 
	C497.113251,127.287529 519.582642,128.250519 541.971375,130.675415 
	C564.661682,133.132965 585.562012,140.577362 605.883484,150.724060 
	C638.389404,166.954544 670.877075,183.170868 701.918884,202.114258 
	C704.719727,203.823486 707.731445,204.459763 710.937012,204.669052 
	C735.690796,206.285431 760.261108,209.561218 784.798950,213.057434 
	C808.353943,216.413635 831.755005,220.623016 854.770386,226.763672 
	C856.699768,227.278412 858.574036,228.068359 860.529907,228.404709 
	C885.103699,232.630508 896.256042,250.031784 903.130676,271.664948 
	C903.531982,272.927917 903.599976,274.607544 904.462585,275.364197 
	C911.435242,281.480286 910.582703,289.255127 909.243164,297.090118 
	C907.721252,305.991089 907.554138,314.986969 907.467529,323.953400 
	C907.426697,328.173584 906.048706,330.269867 902.106689,331.560730 
	C897.531067,333.059143 893.049194,334.962891 888.730164,337.101776 
	C878.712708,342.062592 867.701050,341.660034 857.075134,343.320892 
	C843.947327,345.372772 830.524475,345.507080 817.677979,349.386963 
	C815.467407,350.054626 813.333435,350.558472 812.070496,353.024292 
	C802.862610,371.002045 787.517883,380.348907 767.995911,382.688232 
	C743.332214,385.643707 721.850647,378.768341 704.915955,359.895905 
	C703.257324,358.047455 701.545349,356.052826 700.582336,353.814453 
	C698.556824,349.107086 695.183411,348.626404 690.824341,349.672821 
	C685.136536,351.038269 679.350952,351.419098 673.485657,351.359039 
	C620.830933,350.819366 568.170227,350.672180 515.521851,349.783234 
	C478.862305,349.164276 442.201263,349.644714 405.547272,348.927032 
	C400.552368,348.829224 395.560730,348.571503 390.567017,348.405457 
	C386.562805,348.272278 382.549866,347.877289 380.032013,352.211609 
	C379.093506,353.827148 377.013763,353.310028 375.382629,353.306427 
	C369.552399,353.293610 363.389160,352.011078 357.983673,353.500977 
	C352.304596,355.066284 352.489807,362.792084 348.471008,366.821106 
	C345.778076,369.520844 343.306824,372.456635 340.090118,375.149689 
M573.058533,209.268341 
	C586.394775,209.449951 599.717529,211.028610 613.875366,210.599503 
	C610.990234,204.681137 609.263550,199.720062 611.995117,194.370758 
	C614.683411,189.106049 619.666260,187.025131 626.461670,185.448364 
	C603.922302,167.405197 580.570679,154.813278 554.309509,147.769287 
	C530.568787,141.401352 506.290222,140.902603 481.307037,140.240875 
	C482.140717,142.966141 482.564667,144.551590 483.107391,146.095276 
	C488.791565,162.263641 494.487762,178.427811 500.195587,194.587860 
	C503.383362,203.613083 507.261322,206.428955 516.742493,206.817108 
	C535.204407,207.572937 553.664612,208.369675 573.058533,209.268341 
M360.074829,175.736542 
	C360.836121,182.836929 361.670593,189.930573 362.325745,197.040741 
	C362.623352,200.270676 364.010742,201.632111 367.381470,201.746826 
	C393.478455,202.634888 419.569519,203.694366 445.664612,204.640244 
	C450.818115,204.827042 455.987762,204.935349 461.137848,204.747772 
	C466.416779,204.555496 469.110565,201.461426 468.289276,196.779037 
	C465.277740,179.609512 462.028473,162.479721 459.227722,145.276520 
	C458.487610,140.730301 456.777710,139.139130 452.153442,139.330292 
	C438.524353,139.893661 424.863647,139.758560 411.243103,140.446808 
	C394.316406,141.302139 377.420715,142.677185 360.758118,146.115631 
	C357.944702,146.696182 356.703583,147.493286 357.117645,150.608765 
	C358.189178,158.670776 358.980164,166.770081 360.074829,175.736542 
M310.721527,287.716064 
	C305.879303,286.521851 301.023621,285.099548 295.996185,285.466614 
	C269.513763,287.400116 253.239456,309.271698 255.040359,331.641754 
	C256.923615,355.034882 279.880585,374.232758 302.965820,370.510651 
	C321.849640,367.465942 337.787659,351.835632 339.643768,334.540924 
	C341.938873,313.155365 331.427032,295.804993 310.721527,287.716064 
M800.841675,322.529480 
	C799.951599,296.227264 779.825745,278.202026 753.742004,280.345795 
	C730.392639,282.264832 713.387817,304.362549 716.362305,328.920624 
	C718.901978,349.889160 738.473511,365.864624 760.450806,364.908295 
	C782.910767,363.930969 800.221619,346.173401 800.841675,322.529480 
M351.819000,201.052643 
	C357.315643,202.180542 356.911102,198.734680 356.462128,195.141113 
	C355.163910,184.749649 354.127533,174.319809 352.556122,163.970657 
	C351.799713,158.988922 352.374176,153.704498 349.802826,148.581436 
	C331.890686,153.101562 315.190094,159.792587 300.145508,170.361374 
	C293.442780,175.070038 291.226410,179.983276 293.056244,186.362930 
	C295.463684,194.756241 301.045502,199.447464 309.018677,199.704681 
	C322.995117,200.155563 336.972565,200.574646 351.819000,201.052643 
M144.650955,202.889313 
	C139.476715,199.574982 137.454239,200.197784 134.939072,205.897751 
	C134.672028,206.502930 134.456329,207.134094 134.259583,207.766495 
	C130.458206,219.985306 130.260208,232.604752 130.094254,245.228928 
	C130.057251,248.044647 131.577728,248.979996 134.190918,248.936630 
	C140.171753,248.837402 146.154800,248.772552 152.135849,248.822906 
	C155.302170,248.849564 156.693649,247.396378 156.674393,244.309036 
	C156.631882,237.498962 157.106323,230.645737 156.494781,223.889328 
	C155.742599,215.579071 153.016281,207.947525 144.650955,202.889313 
M891.306091,269.587341 
	C888.705994,260.595154 882.707397,254.085403 875.723022,248.308594 
	C874.628906,247.403641 873.277832,247.395782 871.913635,247.497498 
	C867.600647,247.819031 863.254883,247.882248 858.978821,248.464401 
	C855.118347,248.989960 850.537231,248.347473 847.960876,252.089111 
	C844.405823,257.251953 842.050110,263.079590 839.077332,269.959106 
	C857.013123,269.959106 873.920959,269.959106 891.306091,269.587341 
M521.664124,257.510345 
	C521.030273,253.569489 523.057251,249.161835 519.873718,244.972397 
	C516.300842,249.311371 519.506531,254.296936 517.000061,258.508514 
	C513.779419,255.445297 512.972839,251.410187 510.962402,248.101562 
	C510.188934,246.828674 509.617615,245.153961 507.714233,245.674744 
	C506.046448,246.131088 506.347137,247.771454 506.341187,249.049362 
	C506.312622,255.199066 506.327240,261.349091 506.358124,267.498840 
	C506.364899,268.850220 506.433197,270.247833 508.632141,270.362518 
	C511.673676,266.774841 508.286316,261.745544 510.885468,257.738129 
	C515.618103,260.937836 514.864075,268.073273 520.560669,270.788055 
	C522.420959,266.362152 521.337402,262.355621 521.664124,257.510345 
M314.830780,269.968506 
	C316.207428,268.014038 315.667389,264.678894 319.624847,264.599060 
	C323.023254,264.530426 324.385956,266.031189 325.120300,268.927124 
	C325.386108,269.975372 326.268524,270.723175 327.369995,270.370667 
	C329.135498,269.805786 328.670898,268.280273 328.407227,267.015167 
	C326.851776,259.552002 325.236023,252.101395 323.675568,244.639236 
	C323.303589,242.860397 322.619141,241.530396 320.538147,241.414261 
	C318.166473,241.281906 317.380157,242.759598 316.948822,244.712402 
	C315.270874,252.309708 313.598785,259.908447 311.873169,267.494965 
	C311.397827,269.584808 311.710907,270.834290 314.830780,269.968506 
M714.246155,249.505066 
	C712.218506,245.624664 707.881714,244.088303 702.851746,245.485138 
	C698.988892,246.557861 700.485840,249.783524 700.380066,252.167068 
	C700.166077,256.986938 700.272400,261.823822 700.347656,266.652100 
	C700.371460,268.175232 699.856812,270.193329 702.475037,270.360046 
	C703.990051,269.644806 703.789612,268.210571 703.947754,266.923676 
	C704.143982,265.326874 703.811707,263.292755 706.080017,262.979553 
	C708.583130,262.633942 708.893372,264.615112 709.413147,266.449707 
	C709.912659,268.212738 710.044617,270.551270 713.104980,270.331665 
	C714.533508,267.321411 711.625854,264.370117 713.111816,261.547089 
	C715.000305,257.959320 714.692200,254.133194 714.246155,249.505066 
M425.082642,260.449738 
	C425.723053,263.729218 423.846039,267.536011 426.534515,270.487305 
	C428.761993,269.655212 428.542847,268.215118 428.684204,266.913788 
	C428.853210,265.357971 428.271576,263.309418 430.716309,263.019348 
	C433.043671,262.743195 433.197571,264.768219 433.828705,266.239990 
	C434.597870,268.033752 434.552673,270.676086 438.516998,270.065369 
	C435.544098,263.666626 439.582520,257.733978 438.765961,251.449783 
	C438.118134,246.464020 436.741150,245.410172 430.605469,245.273666 
	C425.934998,245.169769 424.903809,247.519257 425.115234,251.480988 
	C425.256989,254.137375 425.110779,256.809143 425.082642,260.449738 
M500.384918,268.752716 
	C503.061493,263.036926 501.253235,256.993317 501.623840,251.111481 
	C501.915253,246.486694 499.033661,245.290146 494.908661,245.251404 
	C490.690308,245.211761 487.588654,246.238098 487.418762,251.057053 
	C487.290405,254.699020 487.448334,258.350555 487.454041,261.997894 
	C487.467163,270.408234 491.775970,272.968353 500.384918,268.752716 
M681.881714,267.276855 
	C684.140808,271.813599 688.229309,271.056519 691.865784,270.235046 
	C695.452698,269.424805 695.695618,266.114075 695.670471,262.992554 
	C695.639771,259.177948 695.717773,255.360977 695.610962,251.548889 
	C695.493652,247.362396 693.474426,245.214447 689.038391,245.316269 
	C683.693359,245.438950 681.573425,246.856079 681.416260,251.598923 
	C681.251831,256.561951 681.503113,261.538757 681.881714,267.276855 
M623.975952,246.991425 
	C620.915344,245.930832 621.133972,248.386246 621.071655,249.979294 
	C620.915894,253.960037 621.107849,257.953156 621.022339,261.938354 
	C620.974792,264.154541 620.655457,266.580414 617.742920,266.637817 
	C614.611633,266.699585 614.712585,264.162262 614.689453,261.980621 
	C614.643555,257.660522 614.682617,253.339523 614.636597,249.019424 
	C614.622925,247.733673 614.874756,246.070267 613.093811,245.799622 
	C610.883118,245.463669 610.717224,247.428848 610.674561,248.799103 
	C610.503967,254.272491 610.256836,259.769714 610.588928,265.224579 
	C610.875427,269.931458 614.337280,270.815125 618.478760,270.716705 
	C622.699036,270.616455 624.598450,268.501770 624.617126,264.553284 
	C624.643799,258.912323 624.480408,253.270416 623.975952,246.991425 
M447.463470,249.981796 
	C445.844025,256.668518 444.224579,263.355255 442.585022,270.125153 
	C447.464478,271.398010 446.083649,265.135010 450.590393,265.239380 
	C455.017212,265.341919 455.692810,269.162933 458.284790,270.521606 
	C460.173737,269.332367 459.623077,267.954163 459.327240,266.722198 
	C457.934662,260.922668 456.487000,255.136322 455.047485,249.348114 
	C454.565002,247.408127 454.262390,245.373474 451.493591,245.359909 
	C448.789185,245.346664 448.382324,247.374725 447.463470,249.981796 
M568.675171,259.686523 
	C567.708130,255.823486 566.716187,251.966431 565.785889,248.094589 
	C565.392517,246.457306 564.597717,245.416687 562.773804,245.363480 
	C561.102966,245.314758 559.757141,245.789902 559.308167,247.527924 
	C557.377258,255.003769 555.498047,262.492950 553.558472,270.140808 
	C558.493530,271.329834 557.625610,265.190247 562.204773,265.194458 
	C566.742371,265.198608 566.462402,270.393036 570.420959,270.409821 
	C571.151794,266.680176 569.354492,263.677582 568.675171,259.686523 
M658.506287,267.525879 
	C659.332214,268.829102 659.586182,270.917480 662.599548,269.881531 
	C661.378052,262.167480 659.482727,254.516891 657.059875,247.041580 
	C656.209839,244.418930 652.187073,244.707184 651.331787,247.530365 
	C649.098511,254.901581 647.362854,262.423553 645.428772,269.885406 
	C645.772461,270.190796 646.116150,270.496155 646.459900,270.801544 
	C649.992920,268.105835 652.758728,262.621033 658.506287,267.525879 
M374.983948,245.327652 
	C371.450470,244.880630 370.258087,246.590591 370.368622,249.951675 
	C370.521118,254.587143 370.286438,259.235840 370.458618,263.869934 
	C370.543945,266.166809 369.166748,269.761566 372.410675,270.286102 
	C376.294189,270.914124 380.695618,271.913361 384.678955,269.153290 
	C382.825958,266.296509 380.419220,267.359070 378.442413,267.052338 
	C376.160919,266.698334 374.751495,265.792908 374.763062,263.260925 
	C374.773651,260.948029 375.976624,260.022552 378.142426,259.857300 
	C379.540314,259.750610 381.300476,260.058167 381.550720,257.645813 
	C380.057739,254.968826 373.757141,257.760834 374.735687,251.966156 
	C375.645142,246.580536 381.532532,250.913132 383.593353,247.141907 
	C381.406036,244.600891 378.426605,245.592758 374.983948,245.327652 
M413.645386,249.080704 
	C415.534882,248.574631 417.975677,249.759598 419.593628,247.129761 
	C417.074982,244.837143 414.164612,245.567169 411.468536,245.338928 
	C407.692719,245.019302 405.969604,246.421158 406.212433,250.456787 
	C406.491791,255.099030 406.180908,259.774139 406.348419,264.426971 
	C406.425110,266.557007 405.129669,269.936920 408.269775,270.337830 
	C411.978790,270.811371 416.191315,271.913971 419.886536,269.220795 
	C417.513672,265.155640 411.727844,269.432281 410.588043,264.241516 
	C409.262543,258.204773 416.265381,261.301514 417.554291,258.189301 
	C417.020264,256.271332 415.597687,256.385834 414.301270,256.254059 
	C412.812103,256.102692 411.096558,256.125458 410.825409,254.161102 
	C410.557922,252.222809 410.092896,250.048798 413.645386,249.080704 
M342.742493,245.458572 
	C333.432770,245.083878 332.084045,246.464218 332.416473,255.868546 
	C332.521790,258.848633 332.482117,261.833618 332.525208,264.816162 
	C332.565521,267.606140 333.732513,269.930115 336.538605,270.366302 
	C339.715088,270.860016 343.433502,271.832062 345.702179,268.457764 
	C347.024628,266.490875 347.832336,263.951050 344.642029,262.121857 
	C344.122711,262.794983 343.545898,263.238739 343.388641,263.800049 
	C342.776245,265.986176 341.655762,267.462677 339.159210,266.973785 
	C336.493713,266.451782 336.638184,264.263885 336.616241,262.257050 
	C336.592590,260.096130 336.468597,257.920471 336.667938,255.777252 
	C336.881500,253.481064 335.501526,250.410660 338.801758,249.308365 
	C342.240601,248.159790 342.582916,251.656311 344.139557,253.319153 
	C344.323364,253.515472 344.756012,253.478821 345.730774,253.698013 
	C347.291626,250.371841 347.137665,247.675430 342.742493,245.458572 
M595.727173,261.259308 
	C595.730347,259.260925 595.672302,257.260071 595.752930,255.264801 
	C595.843506,253.023972 595.119995,250.315765 598.093506,249.311371 
	C601.684387,248.098404 601.822144,251.585541 603.247742,253.320297 
	C603.412659,253.521057 603.859497,253.490234 604.668640,253.686203 
	C606.402588,251.851807 606.375427,249.474060 605.129395,247.537125 
	C603.039856,244.289078 599.469360,245.299210 596.415894,245.522781 
	C593.727295,245.719666 592.285889,247.629486 592.246094,250.293533 
	C592.169128,255.453552 592.241699,260.615814 592.251892,265.777130 
	C592.257385,268.545593 593.682556,270.332642 596.366699,270.505493 
	C599.412476,270.701691 603.084839,271.816254 605.024475,268.447388 
	C606.222534,266.366608 607.016357,263.492950 603.445679,261.795410 
	C601.853027,263.757843 602.319214,267.752167 598.392395,266.893188 
	C595.848145,266.336639 595.740112,264.243561 595.727173,261.259308 
M548.895447,262.343262 
	C546.556763,261.368317 546.565247,263.159088 546.158447,264.593994 
	C545.613037,266.518158 544.155457,267.185333 542.311523,266.856171 
	C540.589966,266.548889 539.851440,265.264801 539.805115,263.608185 
	C539.735657,261.120148 539.597168,258.621490 539.749390,256.143372 
	C539.901245,253.670151 538.638733,250.467468 542.149597,249.301239 
	C545.693237,248.124115 545.702026,251.884949 547.347900,253.376755 
	C547.550537,253.560425 547.971436,253.503265 548.534607,253.599152 
	C550.539368,251.512436 550.320312,248.993073 548.703857,247.044586 
	C546.354614,244.212769 542.856506,245.275955 539.809143,245.608337 
	C537.341980,245.877396 536.146667,247.762390 536.111389,250.202713 
	C536.046570,254.683044 536.019287,259.165466 536.077576,263.645660 
	C536.155640,269.641541 537.783020,271.026489 544.098877,270.664917 
	C548.893982,270.390381 549.992432,268.751373 548.895447,262.343262 
M351.932159,258.262268 
	C351.913300,260.419464 351.812744,262.579895 351.897400,264.733032 
	C351.991455,267.124847 352.335815,269.671509 355.137817,270.281860 
	C358.027222,270.911224 361.236755,271.545929 363.755951,269.439911 
	C366.150604,267.437988 366.549408,264.887787 364.436066,262.442291 
	C362.747772,262.474945 362.502258,263.476166 362.164185,264.426727 
	C361.445801,266.446655 359.969666,267.366638 357.892212,266.923950 
	C355.516632,266.417694 355.561127,264.439880 355.573303,262.571381 
	C355.585236,260.742828 355.440277,258.890503 355.682983,257.091644 
	C356.037415,254.464233 354.158020,251.005402 357.452118,249.405899 
	C361.302368,247.536362 361.596497,252.027222 363.602051,253.511795 
	C363.712341,253.593414 363.922455,253.540161 364.086090,253.549698 
	C366.489502,250.147919 365.912079,246.995148 362.646271,245.687927 
	C355.881500,242.980164 350.988220,246.668777 351.687988,253.938370 
	C351.799347,255.095367 351.846527,256.258545 351.932159,258.262268 
M389.422241,266.964142 
	C389.442444,268.752777 389.772186,270.604340 391.974976,270.486908 
	C395.134399,270.318481 398.754303,271.954071 401.437134,269.096405 
	C400.949585,267.649963 400.239075,267.167480 399.362518,267.245667 
	C394.100769,267.714874 393.355194,264.641754 393.620697,260.376495 
	C393.847778,256.728577 393.699249,253.053604 393.624146,249.392502 
	C393.595367,247.989639 394.054504,245.989120 391.929291,245.833984 
	C389.794617,245.678146 389.823090,247.724976 389.771362,249.108826 
	C389.560181,254.758316 389.515167,260.414032 389.422241,266.964142 
M640.857910,269.882446 
	C642.087585,267.045837 639.883667,267.180969 638.323242,267.195374 
	C634.508118,267.230530 633.523499,265.194885 633.657776,261.779510 
	C633.821167,257.622772 633.722229,253.453094 633.641968,249.290848 
	C633.614990,247.890442 634.012939,245.853302 631.834229,245.839813 
	C629.709900,245.826660 630.149109,247.893631 629.856689,249.271820 
	C629.049744,253.075806 629.603882,256.907684 629.624512,260.727722 
	C629.681824,271.329926 629.688782,271.329895 640.857910,269.882446 
M469.235138,245.316528 
	C466.633575,245.655212 463.612610,244.303925 461.066925,247.474670 
	C466.756989,249.431625 465.941315,254.020111 466.010132,258.237885 
	C466.050873,260.735107 465.901245,263.239502 466.038361,265.729614 
	C466.130432,267.401733 465.325073,270.102417 467.901550,270.138184 
	C470.630554,270.176086 469.486389,267.426971 469.751343,265.810638 
	C470.818756,259.298492 466.488922,251.571686 474.358063,246.899155 
	C473.124847,244.927032 471.484467,245.486984 469.235138,245.316528 
M672.674866,263.207825 
	C673.409851,257.496033 669.864197,250.604965 677.863037,247.036819 
	C672.382996,244.316284 667.103271,244.765961 664.712708,247.772812 
	C673.630310,253.212631 665.402466,263.595612 670.681824,270.321503 
	C673.387756,268.477325 672.387573,266.120178 672.674866,263.207825 
M575.927002,252.669495 
	C575.959045,256.805389 575.921204,260.943542 576.053406,265.076233 
	C576.117432,267.077881 575.180542,270.072144 578.166687,270.371216 
	C581.240295,270.679016 584.850098,271.980408 587.541626,269.220032 
	C587.049500,267.498230 586.089661,267.104919 585.079895,267.175842 
	C580.101013,267.525452 579.373779,264.608917 579.664062,260.570160 
	C579.877014,257.607208 579.917786,254.598053 579.644653,251.645615 
	C579.456604,249.612991 581.017151,245.955612 577.862427,245.967178 
	C574.826477,245.978287 576.473206,249.689499 575.927002,252.669495 
M482.655457,267.694946 
	C482.660065,261.239441 482.676910,254.783890 482.659332,248.328430 
	C482.655609,246.963318 482.529022,245.554138 480.666779,245.510895 
	C479.173706,245.476227 478.595795,246.550339 478.581238,247.784714 
	C478.501160,254.566940 478.167572,261.373138 478.630646,268.122437 
	C478.835632,271.110199 480.921509,271.613251 482.655457,267.694946 
z"/>
<path fill="#000000" opacity="1.000000" stroke="none" 
	d="
M320.664307,261.107056 
	C317.025085,258.917633 316.946808,257.164490 319.817108,251.226486 
	C322.871155,254.476456 323.297607,257.830994 320.664307,261.107056 
z"/>
<path fill="#000000" opacity="1.000000" stroke="none" 
	d="
M710.294922,255.690491 
	C709.807129,258.718201 707.995361,259.473022 705.871765,258.654510 
	C703.280273,257.655701 703.955444,255.084000 703.980103,253.000351 
	C704.002869,251.078568 704.479980,249.095261 706.856445,249.077988 
	C711.500244,249.044205 710.048218,252.688995 710.294922,255.690491 
z"/>
<path fill="#000000" opacity="1.000000" stroke="none" 
	d="
M434.921967,256.518707 
	C433.778595,258.879822 432.142975,259.414825 430.207458,258.569885 
	C428.264465,257.721741 428.642883,255.792007 428.681152,254.195389 
	C428.722626,252.463058 428.067047,250.287506 430.281219,249.379501 
	C432.508942,248.465958 434.310516,249.247742 434.881805,251.653748 
	C435.218353,253.070999 434.999725,254.620087 434.921967,256.518707 
z"/>
<path fill="#000000" opacity="1.000000" stroke="none" 
	d="
M495.747345,266.716644 
	C493.195923,267.141235 491.710144,266.304871 491.398560,264.092773 
	C490.815094,259.950714 490.960114,255.797501 491.577057,251.662338 
	C491.799744,250.169907 492.612915,249.247513 494.163116,249.088852 
	C495.434326,248.958771 496.411438,249.454315 497.156738,250.488831 
	C498.944885,252.970856 498.271698,263.727081 495.747345,266.716644 
z"/>
<path fill="#000000" opacity="1.000000" stroke="none" 
	d="
M685.330750,252.692352 
	C685.644104,250.169281 686.583740,248.777069 688.925049,249.014908 
	C691.233215,249.249359 691.930725,250.960190 691.990417,252.905334 
	C692.097412,256.396057 692.100403,259.894592 691.996155,263.385376 
	C691.936035,265.397583 691.046387,266.986053 688.732971,267.029602 
	C686.473145,267.072144 685.331055,265.636108 685.252686,263.589722 
	C685.119202,260.105469 685.244690,256.611267 685.330750,252.692352 
z"/>
<path fill="#000000" opacity="1.000000" stroke="none" 
	d="
M452.225189,254.564697 
	C452.862640,256.443726 453.351624,258.027618 453.734558,259.636719 
	C453.992554,260.720642 453.673218,261.635406 452.476074,261.953339 
	C451.290283,262.268250 449.538574,262.240479 449.381256,261.186218 
	C448.988922,258.557587 447.953094,255.324829 452.225189,254.564697 
z"/>
<path fill="#000000" opacity="1.000000" stroke="none" 
	d="
M559.970215,259.986664 
	C560.381592,257.412811 560.408630,255.056168 562.532471,253.179886 
	C564.273010,255.808014 565.652893,258.660919 564.289856,261.322479 
	C563.444275,262.973633 561.106995,262.429352 559.970215,259.986664 
z"/>
<path fill="#000000" opacity="1.000000" stroke="none" 
	d="
M651.859497,259.895172 
	C651.973267,257.221710 652.268921,254.995605 654.136047,252.773682 
	C656.215088,255.667450 657.468994,258.641602 655.695557,261.599182 
	C654.925049,262.884125 652.668152,262.329865 651.859497,259.895172 
z"/>
</svg>